<?xml version="1.0" encoding="UTF-8" standalone="no"?>
<!DOCTYPE svg PUBLIC "-//W3C//DTD SVG 1.1//EN"
 "http://www.w3.org/Graphics/SVG/1.1/DTD/svg11.dtd">
<!-- Generated by graphviz version 2.47.0 (20210316.0004)
 -->
<!-- Title: dbml Pages: 1 -->
<svg width="1246pt" height="970pt"
 viewBox="0.00 0.00 1246.08 970.35" xmlns="http://www.w3.org/2000/svg" xmlns:xlink="http://www.w3.org/1999/xlink">
<g id="graph0" class="graph" transform="scale(1 1) rotate(0) translate(4 966.35)">
<title>dbml</title>
<!-- users -->
<g id="users" class="node">
<title>users</title>
<ellipse fill="none" stroke="black" stroke-width="0" cx="299.11" cy="-504.96" rx="299.21" ry="172.57"/>
<polygon fill="#1d71b8" stroke="transparent" points="90.11,-564.96 90.11,-624.96 509.11,-624.96 509.11,-564.96 90.11,-564.96"/>
<polygon fill="none" stroke="#29235c" points="90.11,-564.96 90.11,-624.96 509.11,-624.96 509.11,-564.96 90.11,-564.96"/>
<text text-anchor="start" x="198.24" y="-586.16" font-family="Helvetica,sans-Serif" font-weight="bold" font-size="32.00" fill="#ffffff"> &#160;&#160;&#160;&#160;&#160;&#160;users &#160;&#160;&#160;&#160;&#160;&#160;</text>
<polygon fill="#e7e2dd" stroke="transparent" points="90.11,-504.96 90.11,-564.96 509.11,-564.96 509.11,-504.96 90.11,-504.96"/>
<polygon fill="none" stroke="#29235c" points="90.11,-504.96 90.11,-564.96 509.11,-564.96 509.11,-504.96 90.11,-504.96"/>
<text text-anchor="start" x="101.11" y="-526.16" font-family="Helvetica,sans-Serif" font-weight="bold" font-size="32.00" fill="#29235c">id</text>
<text text-anchor="start" x="126" y="-526.16" font-family="Helvetica,sans-Serif" font-size="32.00" fill="#29235c"> &#160;&#160;&#160;</text>
<text text-anchor="start" x="384.3" y="-526.16" font-family="Helvetica,sans-Serif" font-style="italic" font-size="32.00" fill="#29235c">SERIAL</text>
<polygon fill="#e7e2dd" stroke="transparent" points="90.11,-444.96 90.11,-504.96 509.11,-504.96 509.11,-444.96 90.11,-444.96"/>
<polygon fill="none" stroke="#29235c" points="90.11,-444.96 90.11,-504.96 509.11,-504.96 509.11,-444.96 90.11,-444.96"/>
<text text-anchor="start" x="100.65" y="-465.16" font-family="Helvetica,sans-Serif" font-size="32.00" fill="#29235c">first_name &#160;&#160;&#160;</text>
<text text-anchor="start" x="284.95" y="-466.16" font-family="Helvetica,sans-Serif" font-style="italic" font-size="32.00" fill="#29235c">VARCHAR(20)</text>
<polygon fill="#e7e2dd" stroke="transparent" points="90.11,-384.96 90.11,-444.96 509.11,-444.96 509.11,-384.96 90.11,-384.96"/>
<polygon fill="none" stroke="#29235c" points="90.11,-384.96 90.11,-444.96 509.11,-444.96 509.11,-384.96 90.11,-384.96"/>
<text text-anchor="start" x="101.11" y="-405.16" font-family="Helvetica,sans-Serif" font-size="32.00" fill="#29235c">last_name &#160;&#160;&#160;</text>
<text text-anchor="start" x="284.95" y="-406.16" font-family="Helvetica,sans-Serif" font-style="italic" font-size="32.00" fill="#29235c">VARCHAR(20)</text>
<polygon fill="none" stroke="#29235c" stroke-width="2" points="88.61,-383.96 88.61,-625.96 509.61,-625.96 509.61,-383.96 88.61,-383.96"/>
</g>
<!-- user_logins -->
<g id="user_logins" class="node">
<title>user_logins</title>
<ellipse fill="none" stroke="black" stroke-width="0" cx="936.15" cy="-704.96" rx="301.87" ry="257.27"/>
<polygon fill="#1d71b8" stroke="transparent" points="725.15,-824.96 725.15,-884.96 1148.15,-884.96 1148.15,-824.96 725.15,-824.96"/>
<polygon fill="none" stroke="#29235c" points="725.15,-824.96 725.15,-884.96 1148.15,-884.96 1148.15,-824.96 725.15,-824.96"/>
<text text-anchor="start" x="792.6" y="-846.16" font-family="Helvetica,sans-Serif" font-weight="bold" font-size="32.00" fill="#ffffff"> &#160;&#160;&#160;&#160;&#160;&#160;user_logins &#160;&#160;&#160;&#160;&#160;&#160;</text>
<polygon fill="#e7e2dd" stroke="transparent" points="725.15,-764.96 725.15,-824.96 1148.15,-824.96 1148.15,-764.96 725.15,-764.96"/>
<polygon fill="none" stroke="#29235c" points="725.15,-764.96 725.15,-824.96 1148.15,-824.96 1148.15,-764.96 725.15,-764.96"/>
<text text-anchor="start" x="736.15" y="-785.16" font-family="Helvetica,sans-Serif" font-size="32.00" fill="#29235c">user_id &#160;&#160;&#160;</text>
<text text-anchor="start" x="1085.6" y="-786.16" font-family="Helvetica,sans-Serif" font-style="italic" font-size="32.00" fill="#29235c">INT</text>
<polygon fill="#e7e2dd" stroke="transparent" points="725.15,-704.96 725.15,-764.96 1148.15,-764.96 1148.15,-704.96 725.15,-704.96"/>
<polygon fill="none" stroke="#29235c" points="725.15,-704.96 725.15,-764.96 1148.15,-764.96 1148.15,-704.96 725.15,-704.96"/>
<text text-anchor="start" x="736.15" y="-725.16" font-family="Helvetica,sans-Serif" font-size="32.00" fill="#29235c">token &#160;&#160;&#160;</text>
<text text-anchor="start" x="1055.37" y="-726.16" font-family="Helvetica,sans-Serif" font-style="italic" font-size="32.00" fill="#29235c">TEXT</text>
<polygon fill="#e7e2dd" stroke="transparent" points="725.15,-644.96 725.15,-704.96 1148.15,-704.96 1148.15,-644.96 725.15,-644.96"/>
<polygon fill="none" stroke="#29235c" points="725.15,-644.96 725.15,-704.96 1148.15,-704.96 1148.15,-644.96 725.15,-644.96"/>
<text text-anchor="start" x="736.06" y="-665.16" font-family="Helvetica,sans-Serif" font-size="32.00" fill="#29235c">last_login_at &#160;&#160;&#160;</text>
<text text-anchor="start" x="950.82" y="-666.16" font-family="Helvetica,sans-Serif" font-style="italic" font-size="32.00" fill="#29235c">TIMESTAMP</text>
<polygon fill="#e7e2dd" stroke="transparent" points="725.15,-584.96 725.15,-644.96 1148.15,-644.96 1148.15,-584.96 725.15,-584.96"/>
<polygon fill="none" stroke="#29235c" points="725.15,-584.96 725.15,-644.96 1148.15,-644.96 1148.15,-584.96 725.15,-584.96"/>
<text text-anchor="start" x="736.15" y="-605.16" font-family="Helvetica,sans-Serif" font-size="32.00" fill="#29235c">username &#160;&#160;&#160;</text>
<text text-anchor="start" x="923.84" y="-606.16" font-family="Helvetica,sans-Serif" font-style="italic" font-size="32.00" fill="#29235c">VARCHAR(20)</text>
<polygon fill="#e7e2dd" stroke="transparent" points="725.15,-524.96 725.15,-584.96 1148.15,-584.96 1148.15,-524.96 725.15,-524.96"/>
<polygon fill="none" stroke="#29235c" points="725.15,-524.96 725.15,-584.96 1148.15,-584.96 1148.15,-524.96 725.15,-524.96"/>
<text text-anchor="start" x="736.15" y="-545.16" font-family="Helvetica,sans-Serif" font-size="32.00" fill="#29235c">password &#160;&#160;&#160;</text>
<text text-anchor="start" x="923.84" y="-546.16" font-family="Helvetica,sans-Serif" font-style="italic" font-size="32.00" fill="#29235c">VARCHAR(20)</text>
<polygon fill="none" stroke="#29235c" stroke-width="2" points="723.65,-523.96 723.65,-885.96 1148.65,-885.96 1148.65,-523.96 723.65,-523.96"/>
</g>
<!-- users&#45;&gt;user_logins -->
<!-- users&#45;&gt;user_logins -->
<g id="edge2" class="edge">
<title>users:e&#45;&gt;user_logins:w</title>
<path fill="none" stroke="#29235c" stroke-width="3" d="M510.11,-534.96C656.27,-534.96 578.34,-782.92 714,-794.54"/>
<polygon fill="#29235c" stroke="#29235c" stroke-width="3" points="714.01,-798.04 724.15,-794.96 714.3,-791.05 714.01,-798.04"/>
<text text-anchor="middle" x="730.37" y="-804.56" font-family="Helvetica,sans-Serif" font-size="32.00" fill="#29235c">*</text>
<text text-anchor="middle" x="519" y="-544.56" font-family="Helvetica,sans-Serif" font-size="32.00" fill="#29235c">1</text>
</g>
<!-- posts -->
<g id="posts" class="node">
<title>posts</title>
<ellipse fill="none" stroke="black" stroke-width="0" cx="936.15" cy="-214.96" rx="281.36" ry="214.92"/>
<polygon fill="#1d71b8" stroke="transparent" points="739.15,-304.96 739.15,-364.96 1133.15,-364.96 1133.15,-304.96 739.15,-304.96"/>
<polygon fill="none" stroke="#29235c" points="739.15,-304.96 739.15,-364.96 1133.15,-364.96 1133.15,-304.96 739.15,-304.96"/>
<text text-anchor="start" x="835.66" y="-326.16" font-family="Helvetica,sans-Serif" font-weight="bold" font-size="32.00" fill="#ffffff"> &#160;&#160;&#160;&#160;&#160;&#160;posts &#160;&#160;&#160;&#160;&#160;&#160;</text>
<polygon fill="#e7e2dd" stroke="transparent" points="739.15,-244.96 739.15,-304.96 1133.15,-304.96 1133.15,-244.96 739.15,-244.96"/>
<polygon fill="none" stroke="#29235c" points="739.15,-244.96 739.15,-304.96 1133.15,-304.96 1133.15,-244.96 739.15,-244.96"/>
<text text-anchor="start" x="750.15" y="-266.16" font-family="Helvetica,sans-Serif" font-weight="bold" font-size="32.00" fill="#29235c">id</text>
<text text-anchor="start" x="775.04" y="-266.16" font-family="Helvetica,sans-Serif" font-size="32.00" fill="#29235c"> &#160;&#160;&#160;</text>
<text text-anchor="start" x="1008.34" y="-266.16" font-family="Helvetica,sans-Serif" font-style="italic" font-size="32.00" fill="#29235c">SERIAL</text>
<polygon fill="#e7e2dd" stroke="transparent" points="739.15,-184.96 739.15,-244.96 1133.15,-244.96 1133.15,-184.96 739.15,-184.96"/>
<polygon fill="none" stroke="#29235c" points="739.15,-184.96 739.15,-244.96 1133.15,-244.96 1133.15,-184.96 739.15,-184.96"/>
<text text-anchor="start" x="750.15" y="-205.16" font-family="Helvetica,sans-Serif" font-size="32.00" fill="#29235c">user_id &#160;&#160;&#160;</text>
<text text-anchor="start" x="1070.6" y="-206.16" font-family="Helvetica,sans-Serif" font-style="italic" font-size="32.00" fill="#29235c">INT</text>
<polygon fill="#e7e2dd" stroke="transparent" points="739.15,-124.96 739.15,-184.96 1133.15,-184.96 1133.15,-124.96 739.15,-124.96"/>
<polygon fill="none" stroke="#29235c" points="739.15,-124.96 739.15,-184.96 1133.15,-184.96 1133.15,-124.96 739.15,-124.96"/>
<text text-anchor="start" x="750.15" y="-145.16" font-family="Helvetica,sans-Serif" font-size="32.00" fill="#29235c">content &#160;&#160;&#160;</text>
<text text-anchor="start" x="1040.37" y="-146.16" font-family="Helvetica,sans-Serif" font-style="italic" font-size="32.00" fill="#29235c">TEXT</text>
<polygon fill="#e7e2dd" stroke="transparent" points="739.15,-64.96 739.15,-124.96 1133.15,-124.96 1133.15,-64.96 739.15,-64.96"/>
<polygon fill="none" stroke="#29235c" points="739.15,-64.96 739.15,-124.96 1133.15,-124.96 1133.15,-64.96 739.15,-64.96"/>
<text text-anchor="start" x="749.78" y="-85.16" font-family="Helvetica,sans-Serif" font-size="32.00" fill="#29235c">created_at &#160;&#160;&#160;</text>
<text text-anchor="start" x="935.82" y="-86.16" font-family="Helvetica,sans-Serif" font-style="italic" font-size="32.00" fill="#29235c">TIMESTAMP</text>
<polygon fill="none" stroke="#29235c" stroke-width="2" points="738.15,-63.96 738.15,-365.96 1134.15,-365.96 1134.15,-63.96 738.15,-63.96"/>
</g>
<!-- users&#45;&gt;posts -->
<!-- users&#45;&gt;posts -->
<g id="edge4" class="edge">
<title>users:e&#45;&gt;posts:w</title>
<path fill="none" stroke="#29235c" stroke-width="3" d="M510.11,-534.96C681.17,-534.96 568.35,-227.95 727.77,-215.36"/>
<polygon fill="#29235c" stroke="#29235c" stroke-width="3" points="728.29,-218.84 738.15,-214.96 728.02,-211.85 728.29,-218.84"/>
<text text-anchor="middle" x="744.37" y="-186.16" font-family="Helvetica,sans-Serif" font-size="32.00" fill="#29235c">*</text>
<text text-anchor="middle" x="519" y="-506.16" font-family="Helvetica,sans-Serif" font-size="32.00" fill="#29235c">1</text>
</g>
</g>
</svg>
